<svg id="Capa_1" enable-background="new 0 0 512 512" height="512" viewBox="0 0 512 512" width="512" xmlns="http://www.w3.org/2000/svg"><g id="Lock_1_"><path d="m64 224h384v288h-384z" fill="#ffce33"/><path d="m256 0c-70.693 0-128 57.307-128 128v96h32v-96c0-52.938 43.063-96 96-96s96 43.063 96 96v96h32v-96c0-70.693-57.307-128-128-128z" fill="#fffa50"/><path d="m128 224h32v64h-32z" fill="#ffa65c"/><path d="m352 224h32v64h-32z" fill="#ffa65c"/><g fill="#fffa50"><circle cx="256" cy="448" r="16"/><path d="m176.844 368.844c20.281-20.281 48.281-32.844 79.156-32.844s58.875 12.563 79.156 32.844c.057.057.096.129.152.186l22.469-22.807c-26.074-26.075-62.074-42.223-101.777-42.223s-75.703 16.148-101.777 42.223l22.469 22.807c.056-.057.095-.13.152-.186z"/><path d="m312.541 391.459c-14.486-14.486-34.486-23.459-56.541-23.459s-42.055 8.973-56.541 23.459c-.113.113-.193.258-.307.371l22.463 22.801c.168-.172.289-.387.459-.557 8.692-8.691 20.692-14.074 33.926-14.074s25.234 5.383 33.926 14.074c.17.17.291.385.459.557l22.463-22.801c-.114-.113-.194-.258-.307-.371z"/></g></g></svg>